<svg xmlns="http://www.w3.org/2000/svg" version="1.1" xmlns:xlink="http://www.w3.org/1999/xlink" xmlns:svgjs="http://svgjs.com/svgjs" width="1400" height="560" preserveAspectRatio="none" viewBox="0 0 1400 560"><g mask="url(&quot;#SvgjsMask1003&quot;)" fill="none"><rect width="1400" height="560" x="0" y="0" fill="rgba(236, 236, 236, 1)"></rect><path d="M-120.19 45.53 a165.72 165.72 0 1 0 331.44 0 a165.72 165.72 0 1 0 -331.44 0z" fill="rgba(28, 83, 142, 0.45)" class="triangle-float3"></path><path d="M137.2631687687096-48.01211287100382L-29.484584707032496-27.538063178939044-9.01053501496773 139.20969029680305 157.73721846077436 118.73564060473826z" fill="rgba(28, 83, 142, 0.45)" class="triangle-float3"></path><path d="M-113.04 38.38 a151.42 151.42 0 1 0 302.84 0 a151.42 151.42 0 1 0 -302.84 0z" fill="rgba(28, 83, 142, 0.45)" class="triangle-float2"></path><path d="M1475.9731626077803 53.69639987789892L1355.1240761508868-63.00620635921259 1238.4214699137754 57.842880097680855 1359.2705563706688 174.54548633479237z" fill="rgba(28, 83, 142, 0.45)" class="triangle-float1"></path><path d="M1160.47 52.87 a180.4 180.4 0 1 0 360.8 0 a180.4 180.4 0 1 0 -360.8 0z" fill="rgba(28, 83, 142, 0.45)" class="triangle-float3"></path><path d="M1252.3097730528832-38.94800948207631L1249.3777687714196 129.0264033041974 1417.3521815576933 131.95840758566104 1420.2841858391569-36.01600520061268z" fill="rgba(28, 83, 142, 0.45)" class="triangle-float3"></path><path d="M-56.51 429.84 a38.35 38.35 0 1 0 76.7 0 a38.35 38.35 0 1 0 -76.7 0z" fill="rgba(28, 83, 142, 0.45)" class="triangle-float2"></path><path d="M-123.75 497.09 a172.84 172.84 0 1 0 345.68 0 a172.84 172.84 0 1 0 -345.68 0z" fill="rgba(28, 83, 142, 0.45)" class="triangle-float1"></path><path d="M46.79261521832202 635.6717368599061L173.58382469574767 525.4538199895009 63.36590782534238 398.66261051207516-63.42530165208327 508.88052738248047z" fill="rgba(28, 83, 142, 0.45)" class="triangle-float3"></path><path d="M1203.34 458 a94.66 94.66 0 1 0 189.32 0 a94.66 94.66 0 1 0 -189.32 0z" fill="rgba(28, 83, 142, 0.45)" class="triangle-float2"></path><path d="M1235.877446469947 579.708227032226L1401.325148975998 608.8811208802703 1430.4980428240422 443.43341837421923 1265.0503403179912 414.260524526175z" fill="rgba(28, 83, 142, 0.45)" class="triangle-float1"></path><path d="M1288.217235437044 623.6265246504139L1446.0855957290767 566.1671405717015 1388.6262116503642 408.2987802796689 1230.7578513583317 465.75816435838135z" fill="rgba(28, 83, 142, 0.45)" class="triangle-float1"></path></g><defs><mask id="SvgjsMask1003"><rect width="1400" height="560" fill="#ffffff"></rect></mask><style>
            @keyframes float1 {
                0%{transform: translate(0, 0)}
                50%{transform: translate(-10px, 0)}
                100%{transform: translate(0, 0)}
            }

            .triangle-float1 {
                animation: float1 5s infinite;
            }

            @keyframes float2 {
                0%{transform: translate(0, 0)}
                50%{transform: translate(-5px, -5px)}
                100%{transform: translate(0, 0)}
            }

            .triangle-float2 {
                animation: float2 4s infinite;
            }

            @keyframes float3 {
                0%{transform: translate(0, 0)}
                50%{transform: translate(0, -10px)}
                100%{transform: translate(0, 0)}
            }

            .triangle-float3 {
                animation: float3 6s infinite;
            }
        </style></defs></svg>